<svg width="36.000000" height="38.000000" viewBox="0 0 36 38" fill="none" xmlns="http://www.w3.org/2000/svg" xmlns:xlink="http://www.w3.org/1999/xlink">
	<desc>
			Created with Pixso.
	</desc>
	<defs/>
	<path id="Vector" d="M35.58 14.83C35.09 15.36 34.36 15.36 34.12 15.36C33.67 15.36 33.12 15.28 32.34 15.12C31.72 14.99 31.19 14.86 30.72 14.74C29.79 14.52 29.13 14.36 28.5 14.36C28.14 14.36 27.5 14.51 26.81 14.67C25.75 14.93 24.42 15.24 23.14 15.24C21.85 15.24 20.48 15.14 19.62 15.06C19.34 16.14 18.66 17.91 17.12 19.17C15.03 20.9 13.47 21.66 13.41 21.7C13.01 21.89 12.53 21.79 12.25 21.45C11.96 21.11 11.95 20.62 12.21 20.26C12.22 20.25 13.26 18.76 13.22 17.09C13.21 16.43 13.18 15.91 13.16 15.51C11.85 15.9 9.63 16.76 8.49 18.38C6.75 20.84 6.04 24.63 6.23 25.87C6.43 27.17 6.45 27.17 7.07 27.17C8.4 27.17 9.52 27.22 10.78 27.91C11.9 28.52 12.51 29.19 12.58 29.26C12.83 29.54 12.89 29.94 12.75 30.28C12.6 30.63 12.27 30.86 11.9 30.87C11.54 30.89 10.44 30.98 9.74 31.23C9.37 31.37 9.05 31.53 8.74 31.68C8.24 31.93 7.77 32.16 7.23 32.22C7.05 32.25 6.87 32.26 6.69 32.25C6.49 32.72 6.15 33.28 5.57 33.73C5.13 34.07 4.68 34.28 4.29 34.46C3.8 34.69 3.41 34.87 3.12 35.24C2.34 36.2 2.08 37.24 2.08 37.25C1.98 37.67 1.62 37.97 1.19 37.99C1.18 37.99 1.16 38 1.15 38C0.74 38 0.37 37.74 0.23 37.34C0.17 37.17 -0.33 35.55 0.34 33.19C0.58 32.34 0.96 31.61 1.32 30.91C1.91 29.75 2.42 28.76 2.2 27.54C1.2 21.82 1.27 17.17 2.41 13.71C4.18 8.34 8.47 5.35 9.31 4.8C9.73 4.53 10.1 4.29 10.42 4.1C10.12 3.86 9.75 3.61 9.31 3.42C8.3 2.99 7.87 2.88 7.76 2.85C7.75 2.85 7.74 2.85 7.73 2.85C7.31 2.85 6.99 2.57 6.87 2.16C6.74 1.73 6.98 1.28 7.36 1.05C7.43 1.01 9.17 0 11.45 0C11.93 0 12.39 0.04 12.85 0.12C14.26 0.39 15.25 0.79 16.22 1.18C17.16 1.55 18.05 1.91 19.37 2.19C20.02 2.33 20.61 2.43 21.19 2.53C23.16 2.88 24.87 3.19 27.42 4.49C30.75 6.2 32.62 8.07 32.69 9.75C32.7 10.1 32.7 10.42 32.67 10.7C32.98 10.86 33.36 11.05 33.74 11.27C35.29 12.16 35.95 12.83 35.99 13.57C36.02 14.08 35.88 14.51 35.58 14.83Z" fill="#0057FF" fill-opacity="1.000000" fill-rule="nonzero"/>
</svg>
